<svg
    xmlns="http://www.w3.org/2000/svg"
    viewBox="0 0 512 512"
    width="36"
    height="36"
>
    <path
        fill="#111111"
        d="M125.991 40.945h10.041v10.041c0 5.5 4.46 9.96 9.96 9.96h70.005c5.5 0 9.96-4.46 9.96-9.96V40.945h10.041c5.5 0 9.96-4.46 9.96-9.96s-4.46-9.96-9.96-9.96h-10.041V10.983c0-5.501-4.46-9.96-9.96-9.96h-70.005c-5.5 0-9.96 4.459-9.96 9.96v10.042h-10.041c-5.5 0-9.96 4.46-9.96 9.96s4.46 9.96 9.96 9.96z"
    />
    <path
        fill="#111111"
        d="M276.002 40.945h10.041v10.041c0 5.5 4.46 9.96 9.96 9.96h70.005c5.5 0 9.96-4.46 9.96-9.96V40.945h10.041c5.5 0 9.96-4.46 9.96-9.96s-4.46-9.96-9.96-9.96h-10.041V10.983c0-5.501-4.46-9.96-9.96-9.96h-70.005c-5.5 0-9.96 4.459-9.96 9.96v10.042h-10.041c-5.5 0-9.96 4.46-9.96 9.96s4.46 9.96 9.96 9.96z"
    />
    <path
        fill="#87CEEB"
        d="M431.053 451.054h-10.082V100.948c0-10.984-8.936-19.92-19.92-19.92h-30.083c-10.984 0-19.92 8.936-19.92 19.92v350.106h-60.086V100.948c0-10.984-8.936-19.92-19.92-19.92h-30.082c-10.984 0-19.92 8.936-19.92 19.92v350.106h-60.086V100.948c0-10.984-8.936-19.92-19.92-19.92h-30.083c-10.984 0-19.92 8.936-19.92 19.92v350.106H80.947c-10.984 0-19.92 8.936-19.92 19.92v20.083c0 10.984 8.936 19.92 19.92 19.92h350.105c10.984 0 19.92-8.936 19.92-19.92v-20.083c0-10.984-8.936-19.92-19.919-19.92z"
    />
    <path
        fill="#00BFFF"
        d="M370.967 100.948h30.083v350.106h-30.083V100.948z"
    />
    <path
        fill="#00BFFF"
        d="M110.949 100.948h30.083v350.106h-30.083V100.948z"
    />
    <path
        fill="#B0E0E6"
        d="M80.947 491.057v-20.083c110.749 0 228.966 0 350.105 0v20.082c-35.919 0-340.205.001-350.105.001z"
    />
</svg>